<svg width="1200" height="760" viewBox="0 0 1200 760" fill="none" xmlns="http://www.w3.org/2000/svg">
  <rect width="1200" height="760" fill="#f6f4ef"/>
  <path d="M0 576c168-68 317-76 448-24 184 74 338 68 464-18 92-62 188-80 288-53v279H0V576Z" fill="#e7e1d5"/>
  <rect x="204" y="272" width="792" height="338" fill="#fffdf8" stroke="#d5ccbd" stroke-width="2"/>
  <path d="M600 106 158 302h884L600 106Z" fill="#0b1c30"/>
  <rect x="548" y="318" width="104" height="292" fill="#0b1c30"/>
  <path d="M505 416h190M600 338v230" stroke="#d8c59b" stroke-width="18" stroke-linecap="round"/>
  <circle cx="274" cy="472" r="34" fill="#b49a68"/>
  <path d="M218 602c12-72 31-108 58-108 28 0 48 36 60 108H218Z" fill="#31465c"/>
  <circle cx="926" cy="472" r="34" fill="#b49a68"/>
  <path d="M868 602c12-72 32-108 60-108 27 0 47 36 59 108H868Z" fill="#31465c"/>
  <text x="600" y="690" text-anchor="middle" font-family="Georgia, 'Noto Serif KR', serif" font-size="34" fill="#0b1c30">예배의 자리를 지킨 기도</text>
</svg>
