<svg width="1200" height="760" viewBox="0 0 1200 760" fill="none" xmlns="http://www.w3.org/2000/svg">
  <rect width="1200" height="760" fill="#f7f4ed"/>
  <rect x="160" y="154" width="880" height="452" rx="18" fill="#fffdf8" stroke="#d7ccbb" stroke-width="2"/>
  <rect x="244" y="436" width="712" height="84" rx="42" fill="#0b1c30"/>
  <circle cx="351" cy="320" r="54" fill="#d5b38e"/>
  <circle cx="505" cy="304" r="62" fill="#e0c19e"/>
  <circle cx="676" cy="308" r="60" fill="#d0ad87"/>
  <circle cx="844" cy="326" r="52" fill="#e6c8a6"/>
  <path d="M268 435c17-70 45-105 83-105 40 0 68 35 85 105H268Z" fill="#465a71"/>
  <path d="M408 435c19-78 52-117 98-117 45 0 78 39 97 117H408Z" fill="#0b1c30"/>
  <path d="M578 435c19-74 52-111 98-111 45 0 78 37 97 111H578Z" fill="#34495f"/>
  <path d="M766 435c16-65 42-98 78-98s62 33 78 98H766Z" fill="#65798a"/>
  <path d="M304 510h592" stroke="#d8c59b" stroke-width="8" stroke-linecap="round"/>
  <text x="600" y="666" text-anchor="middle" font-family="Georgia, 'Noto Serif KR', serif" font-size="34" fill="#0b1c30">가족 곁에 남은 따뜻한 식탁</text>
</svg>
