<svg width="1200" height="760" viewBox="0 0 1200 760" fill="none" xmlns="http://www.w3.org/2000/svg">
  <rect width="1200" height="760" fill="#f6f4ef"/>
  <path d="M0 494c155-76 307-94 456-54 178 48 332 38 462-28 98-50 192-59 282-27v375H0V494Z" fill="#dfe6d5"/>
  <path d="M530 760c-4-130 24-247 84-350 46-79 57-153 34-222h100c47 142 10 275-111 400-43 44-67 101-72 172h-35Z" fill="#ded2bd"/>
  <path d="M652 188c-41 46-98 70-170 70 29-58 84-91 170-100v30Z" fill="#7a8b5c"/>
  <path d="M700 188c41 46 98 70 170 70-29-58-84-91-170-100v30Z" fill="#526a47"/>
  <path d="M676 132v328" stroke="#0b1c30" stroke-width="16" stroke-linecap="round"/>
  <path d="M614 254h124" stroke="#0b1c30" stroke-width="16" stroke-linecap="round"/>
  <circle cx="246" cy="432" r="54" fill="#d8c59b"/>
  <circle cx="948" cy="392" r="46" fill="#b49a68"/>
  <text x="600" y="690" text-anchor="middle" font-family="Georgia, 'Noto Serif KR', serif" font-size="34" fill="#0b1c30">주님 품으로 이어진 길</text>
</svg>
